<?xml version="1.0" encoding="iso-8859-1"?>
<!-- Generator: Adobe Illustrator 19.0.0, SVG Export Plug-In . SVG Version: 6.00 Build 0)  -->
<svg version="1.1" id="Capa_1" xmlns="http://www.w3.org/2000/svg" xmlns:xlink="http://www.w3.org/1999/xlink" x="0px" y="0px"
	 viewBox="0 0 512 512" style="enable-background:new 0 0 512 512;" xml:space="preserve">
<path style="fill:#60DC4D;" d="M508.969,171.811l-27.003,44.027L341.348,445.101c-3.853,6.295-10.599,9.768-17.485,9.768
	c-3.653,0-7.346-0.981-10.679-3.023l-57.729-35.41l-6.015-3.693l-2.342-19.957l-19.436-165.86l15.823-25.692l59.61-96.771
	l26.362-42.796c2.842-4.634,7.346-7.907,12.671-9.178c5.314-1.281,10.819-0.4,15.483,2.452l72.191,44.287l72.421,44.417
	c4.664,2.862,7.937,7.366,9.208,12.681C512.702,161.652,511.831,167.147,508.969,171.811z"/>
<path style="fill:#00BA63;" d="M508.969,171.811l-27.003,44.027L341.348,445.101c-3.853,6.295-10.599,9.768-17.485,9.768
	c-3.653,0-7.346-0.981-10.679-3.023l-57.729-35.41l-6.015-3.693l-2.342-19.957L429.802,99.23l72.421,44.417
	c4.664,2.862,7.937,7.366,9.208,12.681C512.702,161.652,511.831,167.147,508.969,171.811z"/>
<path style="fill:#FF4F19;" d="M302.725,394.018c-2.412,4.904-6.596,8.577-11.77,10.339l-35.5,12.08L211.188,431.5l-0.951,0.32
	l-79.897,27.173c-2.182,0.741-4.404,1.091-6.586,1.091c-8.527,0-16.504-5.365-19.406-13.882L17.465,190.777l-16.364-48.09
	c-1.761-5.174-1.401-10.729,1.021-15.643c2.412-4.904,6.596-8.577,11.78-10.339L94.5,89.282l80.007-27.213
	c10.699-3.643,22.349,2.102,25.992,12.791l16.274,47.84l26.712,78.536l60.261,177.139
	C305.507,383.55,305.147,389.104,302.725,394.018z"/>
<path style="fill:#ED2500;" d="M302.725,394.018c-2.412,4.904-6.596,8.577-11.77,10.339l-35.5,12.08L211.188,431.5L95.911,88.811
	l78.596-26.743c10.699-3.643,22.349,2.102,25.992,12.791l16.274,47.84l26.712,78.536l60.261,177.139
	C305.507,383.55,305.147,389.104,302.725,394.018z"/>
<path style="fill:#FFDE46;" d="M206.974,293.697c-2.792,4.784-7.827,7.446-12.981,7.446c-2.572,0-5.174-0.661-7.556-2.042
	l-24.561-14.342l-9.888,24.881c-2.332,5.885-7.977,9.478-13.952,9.478c-1.842,0-3.723-0.34-5.535-1.061
	c-7.706-3.063-11.47-11.79-8.417-19.496l11.56-29.115l-30.736-17.935c-7.166-4.184-9.578-13.371-5.405-20.537
	c4.184-7.156,13.381-9.578,20.537-5.395l26.652,15.553l0.16,0.09l0.44-1.111l11.119-28.004c3.053-7.706,11.79-11.47,19.486-8.407
	c7.706,3.053,11.48,11.78,8.417,19.486l-13.241,33.348l28.494,16.634C208.736,277.343,211.148,286.541,206.974,293.697z"/>
<path style="fill:#E0E0E2;" d="M381.411,266.341l-60.581,8.547c-0.12,0.02-0.24,0.03-0.35,0.04h-0.03
	c-0.16,0.02-0.31,0.04-0.47,0.05c-0.4,0.04-0.811,0.06-1.211,0.06c-0.01,0-0.01,0-0.02,0h-0.04c-0.24,0-0.48-0.02-0.721-0.03
	c-0.17-0.01-0.35-0.01-0.52-0.02c-0.01,0-0.01-0.01-0.02-0.01c-0.981-0.08-1.952-0.26-2.872-0.53c-0.16-0.04-0.32-0.1-0.48-0.15
	c-0.28-0.1-0.56-0.19-0.831-0.3c-0.21-0.08-0.4-0.16-0.6-0.25c-0.22-0.1-0.44-0.2-0.661-0.31c-0.21-0.1-0.41-0.22-0.621-0.33
	c-0.2-0.11-0.39-0.23-0.58-0.35c-0.2-0.12-0.4-0.25-0.59-0.38c-0.19-0.13-0.38-0.27-0.57-0.42c-0.17-0.13-0.35-0.26-0.51-0.4
	c-0.2-0.17-0.4-0.34-0.59-0.52c-0.14-0.13-0.28-0.26-0.42-0.4c-0.21-0.21-0.41-0.43-0.61-0.661c-0.11-0.11-0.21-0.22-0.31-0.34
	c-0.23-0.28-0.45-0.58-0.671-0.881c-0.05-0.07-0.11-0.14-0.17-0.22c-0.53-0.771-0.991-1.591-1.371-2.472
	c-0.05-0.11-0.09-0.22-0.14-0.34c-0.12-0.31-0.25-0.621-0.36-0.951c-0.08-0.24-0.14-0.49-0.21-0.741c-0.06-0.2-0.12-0.4-0.17-0.601
	c-0.06-0.28-0.11-0.57-0.15-0.851c-0.03-0.15-0.07-0.3-0.09-0.45c-0.01-0.04-0.01-0.08-0.01-0.12c-0.04-0.3-0.06-0.621-0.08-0.931
	c-0.02-0.21-0.04-0.42-0.05-0.621c0-0.23,0.01-0.46,0.01-0.691c0.01-0.29,0.01-0.59,0.03-0.881v-0.12l3.043-36.04
	c0.701-8.267,7.957-14.392,16.224-13.702c8.267,0.701,14.392,7.967,13.702,16.224l-1.461,17.285l5.855-0.831l36.09-5.084
	c8.207-1.161,15.803,4.554,16.964,12.761C395.343,257.594,389.628,265.18,381.411,266.341z"/>
<path style="fill:#D8D7DA;" d="M394.182,249.377c1.161,8.217-4.554,15.803-12.771,16.964l-60.581,8.547
	c-0.12,0.02-0.24,0.03-0.35,0.04h-0.03l20.677-33.228l36.09-5.084C385.425,235.455,393.021,241.17,394.182,249.377z"/>
<path style="fill:#FFDE46;" d="M216.773,122.7l-98.193,33.538L17.465,190.777l-16.364-48.09c-1.761-5.174-1.401-10.729,1.021-15.643
	c2.412-4.904,6.596-8.577,11.78-10.339l82.009-27.893l0.58-0.2h0.01l78.006-26.542c10.699-3.643,22.349,2.102,25.992,12.791
	L216.773,122.7z"/>
<path style="fill:#E0E0E2;" d="M508.969,171.811l-27.003,44.027l-89.896-55.977l-88.975-55.397l26.362-42.796
	c2.842-4.634,7.346-7.907,12.671-9.178c5.314-1.281,10.819-0.4,15.483,2.452l72.191,44.287l0.02,0.01l72.401,44.407
	c4.664,2.862,7.937,7.366,9.208,12.681C512.702,161.652,511.831,167.147,508.969,171.811z"/>
<path style="fill:#D8D7DA;" d="M508.969,171.811l-27.003,44.027l-89.896-55.977l37.732-60.631l0.02,0.01l72.401,44.407
	c4.664,2.862,7.937,7.366,9.208,12.681C512.702,161.652,511.831,167.147,508.969,171.811z"/>
<g>
	<path style="fill:#FFB64C;" d="M206.974,293.697c-2.792,4.784-7.827,7.446-12.981,7.446c-2.572,0-5.174-0.661-7.556-2.042
		l-24.561-14.342l-15.183-43.627l0.16,0.09l0.44-1.111l11.119-28.004c3.053-7.706,11.79-11.47,19.486-8.407
		c7.706,3.053,11.48,11.78,8.417,19.486l-13.241,33.348l28.494,16.634C208.736,277.343,211.148,286.541,206.974,293.697z"/>
	<path style="fill:#FFB64C;" d="M216.773,122.7l-98.193,33.538L95.911,88.811l0.58-0.2h0.01l78.006-26.542
		c10.699-3.643,22.349,2.102,25.992,12.791L216.773,122.7z"/>
</g>
<g>
</g>
<g>
</g>
<g>
</g>
<g>
</g>
<g>
</g>
<g>
</g>
<g>
</g>
<g>
</g>
<g>
</g>
<g>
</g>
<g>
</g>
<g>
</g>
<g>
</g>
<g>
</g>
<g>
</g>
</svg>
